<?xml version="1.0" encoding="utf-8"?>
<!-- Generator: Adobe Illustrator 15.0.0, SVG Export Plug-In . SVG Version: 6.00 Build 0)  -->
<!DOCTYPE svg PUBLIC "-//W3C//DTD SVG 1.1//EN" "http://www.w3.org/Graphics/SVG/1.1/DTD/svg11.dtd">
<svg version="1.1" id="Layer_1" xmlns="http://www.w3.org/2000/svg" xmlns:xlink="http://www.w3.org/1999/xlink" x="0px" y="0px"
	 width="202.576px" height="343.666px" viewBox="0 0 202.576 343.666" enable-background="new 0 0 202.576 343.666"
	 xml:space="preserve">
<g>
	<g>
		<line fill="none" stroke="#BBBDBF" stroke-miterlimit="10" x1="189.833" y1="70.536" x2="188.833" y2="70.536"/>
		
			<line fill="none" stroke="#BBBDBF" stroke-miterlimit="10" stroke-dasharray="2.0129,2.0129" x1="186.82" y1="70.536" x2="10.694" y2="70.536"/>
		<line fill="none" stroke="#BBBDBF" stroke-miterlimit="10" x1="9.688" y1="70.536" x2="8.688" y2="70.536"/>
	</g>
</g>
<g>
	<g>
		<path fill="#BBBDBF" d="M13.872,14.883c0.34,0,0.678,0.135,0.883,0.406l4.131,4.473c0.476,0.473,0.407,1.22-0.066,1.693
			s-1.221,0.405-1.693-0.068l-3.254-3.523l-3.252,3.523c-0.474,0.474-1.219,0.542-1.694,0.068c-0.474-0.474-0.542-1.221-0.066-1.693
			l4.132-4.473C13.193,15.018,13.535,14.883,13.872,14.883z"/>
		<path fill="#BBBDBF" d="M13.872,16.645c0.678,0,1.222,0.54,1.222,1.219v50.834c0,0.681-0.544,1.221-1.222,1.221
			c-0.679,0-1.219-0.54-1.219-1.221V17.863C12.653,17.185,13.193,16.645,13.872,16.645z"/>
	</g>
	<g>
		<path fill="#231F20" d="M13.872,124.29c-0.34,0-0.678-0.135-0.883-0.406l-4.131-4.473c-0.476-0.473-0.407-1.22,0.066-1.693
			s1.221-0.405,1.693,0.068l3.254,3.523l3.252-3.523c0.474-0.474,1.219-0.542,1.694-0.068c0.474,0.474,0.542,1.221,0.066,1.693
			l-4.132,4.473C14.551,124.155,14.209,124.29,13.872,124.29z"/>
		<path fill="#231F20" d="M13.872,122.528c-0.678,0-1.222-0.54-1.222-1.219V72.476c0-0.681,0.544-1.221,1.222-1.221
			c0.679,0,1.219,0.54,1.219,1.221v48.833C15.091,121.988,14.551,122.528,13.872,122.528z"/>
	</g>
	<circle fill="#231F20" cx="13.884" cy="70.222" r="2.708"/>
</g>
<g>
	
		<line fill="none" stroke="#BBBDBF" stroke-width="2.7" stroke-linecap="round" stroke-linejoin="round" stroke-miterlimit="10" x1="16.781" y1="313.61" x2="23.452" y2="320.281"/>
	
		<line fill="none" stroke="#BBBDBF" stroke-width="2.7" stroke-linecap="round" stroke-linejoin="round" stroke-miterlimit="10" x1="23.452" y1="313.61" x2="16.781" y2="320.281"/>
</g>
<circle fill="#D0D2D3" cx="20.668" cy="217" r="9.186"/>
<circle fill="#D0D2D3" cx="66.668" cy="217" r="7.186"/>
<circle fill="#D0D2D3" cx="108.335" cy="217" r="5.667"/>
<text transform="matrix(1 0 0 1 11.4243 246.2046)" fill="#929497" font-family="'ArialMT'" font-size="12">75%</text>
<text transform="matrix(1 0 0 1 57.4243 246.2046)" fill="#929497" font-family="'ArialMT'" font-size="12">55%</text>
<text transform="matrix(1 0 0 1 101.4307 246.7046)" fill="#929497" font-family="'ArialMT'" font-size="12">35%</text>
</svg>
