<?xml version="1.0" encoding="utf-8"?>
<!-- Generator: Adobe Illustrator 15.0.0, SVG Export Plug-In . SVG Version: 6.00 Build 0)  -->
<!DOCTYPE svg PUBLIC "-//W3C//DTD SVG 1.1//EN" "http://www.w3.org/Graphics/SVG/1.1/DTD/svg11.dtd">
<svg version="1.1" id="Layer_1" xmlns="http://www.w3.org/2000/svg" xmlns:xlink="http://www.w3.org/1999/xlink" x="0px" y="0px"
	 width="35.306px" height="107.986px" viewBox="0 0 35.306 107.986" enable-background="new 0 0 35.306 107.986"
	 xml:space="preserve">
<g>
	<path d="M17.33,9.504c0.287,0,0.572,0.114,0.745,0.343l3.479,3.767c0.399,0.4,0.342,1.028-0.057,1.428s-1.028,0.342-1.427-0.058
		l-2.741-2.969l-2.739,2.969c-0.398,0.399-1.026,0.457-1.427,0.058c-0.398-0.399-0.456-1.028-0.056-1.428l3.48-3.767
		C16.758,9.618,17.046,9.504,17.33,9.504z"/>
	<path d="M17.33,10.988c0.572,0,1.029,0.266,1.029,0.598v11.21c0,0.333-0.457,0.599-1.029,0.599c-0.571,0-1.026-0.266-1.026-0.599
		v-11.21C16.303,11.254,16.758,10.988,17.33,10.988z"/>
</g>
<circle cx="17.358" cy="43.173" r="6.675"/>
<path d="M11.146,73.921v6.664c0,0.121,0.049,0.241,0.135,0.327s0.205,0.135,0.328,0.135h3.726v-4.893
	c0-0.123,0.049-0.242,0.136-0.328c0.086-0.086,0.205-0.135,0.326-0.135h3.182c0.122,0,0.24,0.049,0.327,0.135
	c0.086,0.086,0.136,0.206,0.136,0.328v4.893h3.725c0.123,0,0.24-0.047,0.328-0.135c0.086-0.087,0.136-0.204,0.136-0.327v-6.674
	l-6.31-4.904L11.146,73.921z"/>
<path d="M11.182,70.752l-1.436,1.104c-0.404,0.312-0.479,0.893-0.168,1.298c0.183,0.236,0.455,0.361,0.732,0.361
	c0.102,0,0.203-0.017,0.303-0.051l6.487-5.163c0.126-0.1,0.302-0.101,0.427-0.003l6.647,5.168c0.362,0.118,0.774,0.008,1.021-0.312
	c0.313-0.405,0.234-0.986-0.17-1.297l-7.074-5.443c-0.332-0.255-0.797-0.255-1.129,0L11.182,70.752L11.182,70.752z"/>
<line fill="none" stroke="#000000" stroke-miterlimit="10" x1="12.143" y1="103.167" x2="23.163" y2="103.167"/>
<line fill="none" stroke="#000000" stroke-miterlimit="10" x1="12.143" y1="99.833" x2="23.163" y2="99.833"/>
<line fill="none" stroke="#000000" stroke-miterlimit="10" x1="12.143" y1="96.167" x2="23.163" y2="96.167"/>
</svg>
