<?xml version="1.0" encoding="utf-8"?>
<!-- Generator: Adobe Illustrator 15.0.0, SVG Export Plug-In . SVG Version: 6.00 Build 0)  -->
<!DOCTYPE svg PUBLIC "-//W3C//DTD SVG 1.1//EN" "http://www.w3.org/Graphics/SVG/1.1/DTD/svg11.dtd">
<svg version="1.1" id="Layer_1" xmlns="http://www.w3.org/2000/svg" xmlns:xlink="http://www.w3.org/1999/xlink" x="0px" y="0px"
	 width="35.307px" height="107.986px" viewBox="0 0 35.307 107.986" enable-background="new 0 0 35.307 107.986"
	 xml:space="preserve">
<path d="M11.146,73.921v6.664c0,0.121,0.049,0.241,0.135,0.327s0.205,0.135,0.328,0.135h3.726v-4.893
	c0-0.123,0.049-0.242,0.137-0.328c0.086-0.086,0.204-0.135,0.325-0.135h3.183c0.122,0,0.24,0.049,0.327,0.135
	c0.086,0.086,0.136,0.206,0.136,0.328v4.893h3.725c0.123,0,0.24-0.047,0.328-0.135c0.086-0.087,0.136-0.204,0.136-0.327v-6.674
	l-6.31-4.904L11.146,73.921z"/>
<path d="M11.182,70.752l-1.437,1.104c-0.404,0.312-0.479,0.893-0.168,1.298c0.184,0.236,0.455,0.361,0.732,0.361
	c0.102,0,0.203-0.018,0.303-0.052l6.487-5.163c0.126-0.1,0.302-0.101,0.427-0.003l6.646,5.168c0.362,0.118,0.774,0.009,1.021-0.312
	c0.313-0.405,0.234-0.986-0.17-1.297l-7.074-5.443c-0.332-0.255-0.797-0.255-1.129,0L11.182,70.752L11.182,70.752z"/>
<line fill="none" stroke="#000000" stroke-miterlimit="10" x1="12.143" y1="103.167" x2="23.163" y2="103.167"/>
<line fill="none" stroke="#000000" stroke-miterlimit="10" x1="12.143" y1="99.833" x2="23.163" y2="99.833"/>
<line fill="none" stroke="#000000" stroke-miterlimit="10" x1="12.143" y1="96.167" x2="23.163" y2="96.167"/>
<g>
	<g>
		<path fill="#231F20" d="M12.841,41.911c0-0.613,0.154-1.135,0.463-1.564s0.756-0.645,1.342-0.645c0.539,0,0.985,0.192,1.339,0.577
			s0.53,0.95,0.53,1.696c0,0.727-0.179,1.286-0.536,1.679s-0.798,0.589-1.321,0.589c-0.52,0-0.952-0.193-1.298-0.58
			S12.841,42.692,12.841,41.911z M14.675,40.428c-0.262,0-0.479,0.113-0.653,0.34s-0.261,0.643-0.261,1.248
			c0,0.551,0.088,0.938,0.264,1.163s0.393,0.337,0.65,0.337c0.266,0,0.485-0.113,0.659-0.34s0.261-0.641,0.261-1.242
			c0-0.555-0.088-0.944-0.264-1.169S14.936,40.428,14.675,40.428z M14.68,48.755l4.699-9.053h0.855l-4.682,9.053H14.68z
			 M18.395,46.423c0-0.617,0.154-1.14,0.463-1.567s0.758-0.642,1.348-0.642c0.539,0,0.985,0.192,1.339,0.577s0.53,0.95,0.53,1.696
			c0,0.727-0.179,1.286-0.536,1.679s-0.8,0.589-1.327,0.589c-0.52,0-0.952-0.194-1.298-0.583S18.395,47.2,18.395,46.423z
			 M20.235,44.94c-0.266,0-0.485,0.113-0.659,0.34s-0.261,0.643-0.261,1.248c0,0.547,0.088,0.934,0.264,1.16s0.393,0.34,0.65,0.34
			c0.27,0,0.491-0.113,0.665-0.34s0.261-0.641,0.261-1.242c0-0.555-0.088-0.944-0.264-1.169S20.497,44.94,20.235,44.94z"/>
	</g>
</g>
<g>
	<circle cx="17.654" cy="23.274" r="2.216"/>
	<g>
		<g>
			
				<line fill="none" stroke="#000000" stroke-width="1.4978" stroke-miterlimit="10" x1="17.654" y1="23.274" x2="17.654" y2="12.478"/>
			<g>
				<polygon points="21.367,13.571 17.633,7.104 13.899,13.571 				"/>
			</g>
		</g>
	</g>
</g>
</svg>
